<svg width="29" height="19" viewBox="0 0 29 19" fill="none" xmlns="http://www.w3.org/2000/svg">
<path d="M8.25765 5.39655L9.16485 7.42996L3.43131 9.84806L9.16485 12.1929L8.25765 14.2996L1 11.1304V8.58405L8.25765 5.39655Z" fill="url(#paint0_linear_102_7)"/>
<path d="M15.3983 1L17.9022 1.56789L13.6384 18L11.1163 17.4138L15.3983 1Z" fill="url(#paint1_linear_102_7)"/>
<path d="M20.7424 5.39655L28 8.58405V11.1304L20.7424 14.2996L19.8351 12.1929L25.5687 9.84806L19.8351 7.42996L20.7424 5.39655Z" fill="url(#paint2_linear_102_7)"/>
<path d="M8.25765 5.39655L9.16485 7.42996L3.43131 9.84806L9.16485 12.1929L8.25765 14.2996L1 11.1304V8.58405L8.25765 5.39655Z" stroke="url(#paint3_linear_102_7)" stroke-width="1.5" stroke-linejoin="round"/>
<path d="M15.3983 1L17.9022 1.56789L13.6384 18L11.1163 17.4138L15.3983 1Z" stroke="url(#paint4_linear_102_7)" stroke-width="1.5" stroke-linejoin="round"/>
<path d="M20.7424 5.39655L28 8.58405V11.1304L20.7424 14.2996L19.8351 12.1929L25.5687 9.84806L19.8351 7.42996L20.7424 5.39655Z" stroke="url(#paint5_linear_102_7)" stroke-width="1.5" stroke-linejoin="round"/>
<defs>
<linearGradient id="paint0_linear_102_7" x1="1" y1="1" x2="29.4076" y2="3.81987" gradientUnits="userSpaceOnUse">
<stop stop-color="#2D71F5"/>
<stop offset="1" stop-color="#369AF5"/>
</linearGradient>
<linearGradient id="paint1_linear_102_7" x1="1" y1="1" x2="29.4076" y2="3.81987" gradientUnits="userSpaceOnUse">
<stop stop-color="#2D71F5"/>
<stop offset="1" stop-color="#369AF5"/>
</linearGradient>
<linearGradient id="paint2_linear_102_7" x1="1" y1="1" x2="29.4076" y2="3.81987" gradientUnits="userSpaceOnUse">
<stop stop-color="#2D71F5"/>
<stop offset="1" stop-color="#369AF5"/>
</linearGradient>
<linearGradient id="paint3_linear_102_7" x1="1" y1="1" x2="29.4076" y2="3.81987" gradientUnits="userSpaceOnUse">
<stop stop-color="#2D71F5"/>
<stop offset="1" stop-color="#369AF5"/>
</linearGradient>
<linearGradient id="paint4_linear_102_7" x1="1" y1="1" x2="29.4076" y2="3.81987" gradientUnits="userSpaceOnUse">
<stop stop-color="#2D71F5"/>
<stop offset="1" stop-color="#369AF5"/>
</linearGradient>
<linearGradient id="paint5_linear_102_7" x1="1" y1="1" x2="29.4076" y2="3.81987" gradientUnits="userSpaceOnUse">
<stop stop-color="#2D71F5"/>
<stop offset="1" stop-color="#369AF5"/>
</linearGradient>
</defs>
</svg>
