<svg width="308" height="51" viewBox="0 0 308 51" fill="none" xmlns="http://www.w3.org/2000/svg">
<path d="M19.8321 12.352L22.2321 17.68L7.06408 24.016L22.2321 30.16L19.8321 35.68L0.63208 27.376V20.704L19.8321 12.352Z" fill="#141414"/>
<path d="M38.7227 0.83197L45.3467 2.31997L34.0667 45.376L27.3947 43.84L38.7227 0.83197Z" fill="#141414"/>
<path d="M52.8602 12.352L72.0602 20.704V27.376L52.8602 35.68L50.4602 30.16L65.6282 24.016L50.4602 17.68L52.8602 12.352Z" fill="#141414"/>
<path d="M99.5908 6.73597L98.8228 12.784H90.6148V40H82.7428V12.784H74.1508V6.73597H99.5908Z" fill="#141414"/>
<path d="M110.201 14.512V40H102.617V14.512H110.201ZM106.361 1.07197C107.673 1.07197 108.745 1.48797 109.577 2.31997C110.441 3.11997 110.873 4.14397 110.873 5.39197C110.873 6.63997 110.441 7.67997 109.577 8.51197C108.745 9.31197 107.673 9.71197 106.361 9.71197C105.049 9.71197 103.977 9.31197 103.145 8.51197C102.313 7.67997 101.897 6.63997 101.897 5.39197C101.897 4.14397 102.313 3.11997 103.145 2.31997C103.977 1.48797 105.049 1.07197 106.361 1.07197Z" fill="#141414"/>
<path d="M136.42 32.608C136.42 33.568 136.548 34.272 136.804 34.72C137.092 35.168 137.54 35.504 138.148 35.728L136.564 40.672C134.996 40.544 133.716 40.208 132.724 39.664C131.732 39.088 130.964 38.192 130.42 36.976C128.756 39.536 126.196 40.816 122.74 40.816C120.212 40.816 118.196 40.08 116.692 38.608C115.188 37.136 114.436 35.216 114.436 32.848C114.436 30.064 115.46 27.936 117.508 26.464C119.556 24.992 122.516 24.256 126.388 24.256H128.98V23.152C128.98 21.648 128.66 20.624 128.02 20.08C127.38 19.504 126.26 19.216 124.66 19.216C123.828 19.216 122.82 19.344 121.636 19.6C120.452 19.824 119.236 20.144 117.988 20.56L116.26 15.568C117.86 14.96 119.492 14.496 121.156 14.176C122.852 13.856 124.42 13.696 125.86 13.696C129.508 13.696 132.18 14.448 133.876 15.952C135.572 17.456 136.42 19.712 136.42 22.72V32.608ZM124.948 35.392C126.676 35.392 128.02 34.576 128.98 32.944V28.432H127.108C125.38 28.432 124.084 28.736 123.22 29.344C122.388 29.952 121.972 30.896 121.972 32.176C121.972 33.2 122.228 34 122.74 34.576C123.284 35.12 124.02 35.392 124.948 35.392Z" fill="#141414"/>
<path d="M165.464 16C163.8 16.672 161.352 17.008 158.12 17.008C159.784 17.712 161 18.576 161.768 19.6C162.536 20.624 162.92 21.952 162.92 23.584C162.92 25.216 162.488 26.688 161.624 28C160.76 29.28 159.512 30.288 157.88 31.024C156.28 31.76 154.392 32.128 152.216 32.128C151.192 32.128 150.216 32.032 149.288 31.84C149.032 31.968 148.824 32.176 148.664 32.464C148.536 32.72 148.472 32.992 148.472 33.28C148.472 33.76 148.648 34.144 149 34.432C149.384 34.688 150.136 34.816 151.256 34.816H155.096C157.048 34.816 158.76 35.136 160.232 35.776C161.704 36.416 162.84 37.296 163.64 38.416C164.44 39.536 164.84 40.8 164.84 42.208C164.84 44.864 163.688 46.928 161.384 48.4C159.112 49.904 155.816 50.656 151.496 50.656C148.392 50.656 145.944 50.32 144.152 49.648C142.36 49.008 141.096 48.096 140.36 46.912C139.656 45.728 139.304 44.24 139.304 42.448H146.12C146.12 43.216 146.264 43.824 146.552 44.272C146.872 44.72 147.432 45.056 148.232 45.28C149.032 45.504 150.184 45.616 151.688 45.616C153.768 45.616 155.208 45.36 156.008 44.848C156.808 44.368 157.208 43.664 157.208 42.736C157.208 41.968 156.904 41.36 156.296 40.912C155.688 40.464 154.776 40.24 153.56 40.24H149.864C147.24 40.24 145.272 39.776 143.96 38.848C142.68 37.888 142.04 36.672 142.04 35.2C142.04 34.272 142.312 33.376 142.856 32.512C143.4 31.616 144.136 30.88 145.064 30.304C143.464 29.44 142.296 28.432 141.56 27.28C140.856 26.096 140.504 24.672 140.504 23.008C140.504 20.16 141.528 17.904 143.576 16.24C145.624 14.544 148.328 13.696 151.688 13.696C154.248 13.76 156.408 13.504 158.168 12.928C159.96 12.352 161.8 11.504 163.688 10.384L165.464 16ZM151.88 18.688C150.696 18.688 149.752 19.072 149.048 19.84C148.376 20.576 148.04 21.6 148.04 22.912C148.04 24.288 148.376 25.36 149.048 26.128C149.752 26.864 150.696 27.232 151.88 27.232C153.128 27.232 154.072 26.864 154.712 26.128C155.384 25.392 155.72 24.288 155.72 22.816C155.72 20.064 154.44 18.688 151.88 18.688Z" fill="#141414"/>
<path d="M178.391 13.696C182.295 13.696 185.351 14.896 187.559 17.296C189.767 19.664 190.871 22.992 190.871 27.28C190.871 30 190.359 32.384 189.335 34.432C188.343 36.448 186.903 38.016 185.015 39.136C183.159 40.256 180.951 40.816 178.391 40.816C174.519 40.816 171.463 39.632 169.223 37.264C167.015 34.864 165.911 31.52 165.911 27.232C165.911 24.512 166.407 22.144 167.399 20.128C168.423 18.08 169.863 16.496 171.719 15.376C173.607 14.256 175.831 13.696 178.391 13.696ZM178.391 19.264C176.855 19.264 175.703 19.92 174.935 21.232C174.167 22.512 173.783 24.512 173.783 27.232C173.783 30.016 174.151 32.048 174.887 33.328C175.655 34.608 176.823 35.248 178.391 35.248C179.927 35.248 181.079 34.608 181.847 33.328C182.615 32.016 182.999 30 182.999 27.28C182.999 24.496 182.615 22.464 181.847 21.184C181.111 19.904 179.959 19.264 178.391 19.264Z" fill="#141414"/>
<path d="M217.621 5.91997C220.117 5.91997 222.277 6.27197 224.101 6.97597C225.957 7.67997 227.637 8.75197 229.141 10.192L225.493 14.464C223.221 12.608 220.789 11.68 218.197 11.68C216.821 11.68 215.733 11.968 214.933 12.544C214.133 13.088 213.733 13.888 213.733 14.944C213.733 15.68 213.909 16.288 214.261 16.768C214.613 17.216 215.237 17.648 216.133 18.064C217.029 18.48 218.373 18.976 220.165 19.552C223.557 20.64 226.053 21.984 227.653 23.584C229.253 25.152 230.053 27.392 230.053 30.304C230.053 32.384 229.525 34.224 228.469 35.824C227.413 37.392 225.893 38.624 223.909 39.52C221.925 40.384 219.573 40.816 216.853 40.816C214.133 40.816 211.717 40.384 209.605 39.52C207.525 38.656 205.733 37.504 204.229 36.064L208.213 31.696C209.493 32.784 210.805 33.6 212.149 34.144C213.525 34.688 215.013 34.96 216.613 34.96C218.245 34.96 219.525 34.608 220.453 33.904C221.413 33.168 221.893 32.16 221.893 30.88C221.893 30.048 221.717 29.36 221.365 28.816C221.013 28.24 220.405 27.728 219.541 27.28C218.677 26.832 217.429 26.352 215.797 25.84C212.117 24.72 209.493 23.344 207.925 21.712C206.389 20.08 205.621 18.016 205.621 15.52C205.621 13.6 206.133 11.92 207.157 10.48C208.181 9.00797 209.605 7.88797 211.429 7.11997C213.253 6.31997 215.317 5.91997 217.621 5.91997Z" fill="#141414"/>
<path d="M241.826 14.512V40H234.242V14.512H241.826ZM237.986 1.07197C239.298 1.07197 240.37 1.48797 241.202 2.31997C242.066 3.11997 242.498 4.14397 242.498 5.39197C242.498 6.63997 242.066 7.67997 241.202 8.51197C240.37 9.31197 239.298 9.71197 237.986 9.71197C236.674 9.71197 235.602 9.31197 234.77 8.51197C233.938 7.67997 233.522 6.63997 233.522 5.39197C233.522 4.14397 233.938 3.11997 234.77 2.31997C235.602 1.48797 236.674 1.07197 237.986 1.07197Z" fill="#141414"/>
<path d="M254.557 40.816C252.349 40.816 250.621 40.192 249.373 38.944C248.157 37.664 247.549 35.856 247.549 33.52V4.38397L255.133 3.56797V33.232C255.133 34.288 255.565 34.816 256.429 34.816C256.877 34.816 257.293 34.736 257.677 34.576L259.165 39.952C257.789 40.528 256.253 40.816 254.557 40.816Z" fill="#141414"/>
<path d="M283.506 14.512L275.49 40H266.514L258.306 14.512H266.562L271.074 34.24L275.778 14.512H283.506Z" fill="#141414"/>
<path d="M305.357 32.608C305.357 33.568 305.485 34.272 305.741 34.72C306.029 35.168 306.477 35.504 307.085 35.728L305.501 40.672C303.933 40.544 302.653 40.208 301.661 39.664C300.669 39.088 299.901 38.192 299.357 36.976C297.693 39.536 295.133 40.816 291.677 40.816C289.149 40.816 287.133 40.08 285.629 38.608C284.125 37.136 283.373 35.216 283.373 32.848C283.373 30.064 284.397 27.936 286.445 26.464C288.493 24.992 291.453 24.256 295.325 24.256H297.917V23.152C297.917 21.648 297.597 20.624 296.957 20.08C296.317 19.504 295.197 19.216 293.597 19.216C292.765 19.216 291.757 19.344 290.573 19.6C289.389 19.824 288.173 20.144 286.925 20.56L285.197 15.568C286.797 14.96 288.429 14.496 290.093 14.176C291.789 13.856 293.357 13.696 294.797 13.696C298.445 13.696 301.117 14.448 302.813 15.952C304.509 17.456 305.357 19.712 305.357 22.72V32.608ZM293.885 35.392C295.613 35.392 296.957 34.576 297.917 32.944V28.432H296.045C294.317 28.432 293.021 28.736 292.157 29.344C291.325 29.952 290.909 30.896 290.909 32.176C290.909 33.2 291.165 34 291.677 34.576C292.221 35.12 292.957 35.392 293.885 35.392Z" fill="#141414"/>
</svg>
